# WaveFront *.obj file (generated by Autodesk ATF)

mtllib 2x2_parts_tray v1.mtl

g Body1

v 75.000000 5.000000 20.000000
v 75.000000 75.000000 20.000000
v 75.000000 75.000000 10.000000
v 75.000000 5.000000 10.000000
v 5.000000 75.000000 20.000000
v 5.000000 75.000000 10.000000
v 5.000000 5.000000 20.000000
v 5.000000 5.000000 10.000000
v -75.000000 -75.000000 20.000000
v -5.000000 -75.000000 20.000000
v -5.000000 -75.000000 10.000000
v -75.000000 -75.000000 10.000000
v -5.000000 -5.000000 20.000000
v -5.000000 -5.000000 10.000000
v -75.000000 -5.000000 20.000000
v -75.000000 -5.000000 10.000000
v -5.000000 5.000000 20.000000
v -5.000000 75.000000 20.000000
v -5.000000 75.000000 10.000000
v -5.000000 5.000000 10.000000
v -75.000000 75.000000 20.000000
v -75.000000 75.000000 10.000000
v -75.000000 5.000000 20.000000
v -75.000000 5.000000 10.000000
v 5.000000 -5.000000 20.000000
v 5.000000 -75.000000 20.000000
v 5.000000 -75.000000 10.000000
v 5.000000 -5.000000 10.000000
v 75.000000 -75.000000 20.000000
v 75.000000 -75.000000 10.000000
v 75.000000 -5.000000 20.000000
v 75.000000 -5.000000 10.000000
v 85.000000 -85.000000 0.000000
v 85.000000 85.000000 0.000000
v 85.000000 85.000000 20.000000
v 85.000000 -85.000000 20.000000
v -85.000000 -85.000000 0.000000
v -85.000000 -85.000000 20.000000
v -85.000000 85.000000 0.000000
v -85.000000 85.000000 20.000000
vt -7.000000 0.000000 0.000000
vt -0.000000 0.000000 0.000000
vt -7.000000 1.000000 0.000000
vt -0.000000 1.000000 0.000000
vt -7.000000 0.000000 0.000000
vt -0.000000 0.000000 0.000000
vt -7.000000 1.000000 0.000000
vt -0.000000 1.000000 0.000000
vt -7.000000 0.000000 0.000000
vt -0.000000 0.000000 0.000000
vt -7.000000 1.000000 0.000000
vt -0.000000 1.000000 0.000000
vt -7.000000 -0.000000 0.000000
vt 0.000000 0.000000 0.000000
vt -7.000000 1.000000 0.000000
vt -0.000000 1.000000 0.000000
vt -3.500000 -3.500000 0.000000
vt 3.500000 -3.500000 0.000000
vt -3.500000 3.500000 0.000000
vt 3.500000 3.500000 0.000000
vt -7.000000 0.000000 0.000000
vt 0.000000 0.000000 0.000000
vt -7.000000 1.000000 0.000000
vt -0.000000 1.000000 0.000000
vt -7.000000 0.000000 0.000000
vt 0.000000 0.000000 0.000000
vt -7.000000 1.000000 0.000000
vt -0.000000 1.000000 0.000000
vt -7.000000 0.000000 0.000000
vt -0.000000 0.000000 0.000000
vt -7.000000 1.000000 0.000000
vt -0.000000 1.000000 0.000000
vt -7.000000 0.000000 0.000000
vt -0.000000 0.000000 0.000000
vt -7.000000 1.000000 0.000000
vt -0.000000 1.000000 0.000000
vt -3.500000 -3.500000 0.000000
vt 3.500000 -3.500000 0.000000
vt -3.500000 3.500000 0.000000
vt 3.500000 3.500000 0.000000
vt -7.000000 0.000000 0.000000
vt -0.000000 0.000000 0.000000
vt -7.000000 1.000000 0.000000
vt -0.000000 1.000000 0.000000
vt -7.000000 0.000000 0.000000
vt -0.000000 0.000000 0.000000
vt -7.000000 1.000000 0.000000
vt -0.000000 1.000000 0.000000
vt -7.000000 0.000000 0.000000
vt -0.000000 0.000000 0.000000
vt -7.000000 1.000000 0.000000
vt -0.000000 1.000000 0.000000
vt -7.000000 0.000000 0.000000
vt -0.000000 0.000000 0.000000
vt -7.000000 1.000000 0.000000
vt -0.000000 1.000000 0.000000
vt -3.500000 -3.500000 0.000000
vt 3.500000 -3.500000 0.000000
vt -3.500000 3.500000 0.000000
vt 3.500000 3.500000 0.000000
vt -7.000000 0.000000 0.000000
vt -0.000000 0.000000 0.000000
vt -7.000000 1.000000 0.000000
vt -0.000000 1.000000 0.000000
vt -7.000000 0.000000 0.000000
vt -0.000000 0.000000 0.000000
vt -7.000000 1.000000 0.000000
vt -0.000000 1.000000 0.000000
vt -7.000000 0.000000 0.000000
vt -0.000000 0.000000 0.000000
vt -7.000000 1.000000 0.000000
vt 0.000000 1.000000 0.000000
vt -7.000000 0.000000 0.000000
vt -0.000000 0.000000 0.000000
vt -7.000000 1.000000 0.000000
vt -0.000000 1.000000 0.000000
vt 3.500000 3.500000 0.000000
vt -3.500000 3.500000 0.000000
vt 3.500000 -3.500000 0.000000
vt -3.500000 -3.500000 0.000000
vt 0.000000 0.000000 0.000000
vt 17.000000 0.000000 0.000000
vt 0.000000 2.000000 0.000000
vt 17.000000 2.000000 0.000000
vt 0.000000 0.000000 0.000000
vt 17.000000 0.000000 0.000000
vt 0.000000 2.000000 0.000000
vt 17.000000 2.000000 0.000000
vt 0.000000 0.000000 0.000000
vt 17.000000 0.000000 0.000000
vt 0.000000 2.000000 0.000000
vt 17.000000 2.000000 0.000000
vt -0.000000 0.000000 0.000000
vt 17.000000 0.000000 0.000000
vt -0.000000 2.000000 0.000000
vt 17.000000 2.000000 0.000000
vt 0.500000 7.500000 0.000000
vt 7.500000 7.500000 0.000000
vt 8.500000 8.500000 0.000000
vt 7.500000 0.500000 0.000000
vt 8.500000 -8.500000 0.000000
vt 7.500000 -0.500000 0.000000
vt 7.500000 -7.500000 0.000000
vt 0.500000 0.500000 0.000000
vt 0.500000 -0.500000 0.000000
vt -0.500000 0.500000 0.000000
vt -0.500000 -0.500000 0.000000
vt -7.500000 0.500000 0.000000
vt -7.500000 -0.500000 0.000000
vt -8.500000 -8.500000 0.000000
vt -7.500000 -7.500000 0.000000
vt -0.500000 -7.500000 0.000000
vt 0.500000 -7.500000 0.000000
vt -0.500000 7.500000 0.000000
vt -8.500000 8.500000 0.000000
vt -7.500000 7.500000 0.000000
vt 8.500000 8.500000 0.000000
vt -8.500000 8.500000 0.000000
vt 8.500000 -8.500000 0.000000
vt -8.500000 -8.500000 0.000000
vn -0.100000 -0.000000 0.000000
vn -0.100000 -0.000000 0.000000
vn -0.100000 -0.000000 0.000000
vn -0.100000 -0.000000 0.000000
vn 0.000000 -0.100000 0.000000
vn 0.000000 -0.100000 0.000000
vn 0.000000 -0.100000 0.000000
vn 0.000000 -0.100000 0.000000
vn 0.100000 0.000000 0.000000
vn 0.100000 0.000000 0.000000
vn 0.100000 0.000000 0.000000
vn 0.100000 0.000000 0.000000
vn -0.000000 0.100000 -0.000000
vn -0.000000 0.100000 -0.000000
vn -0.000000 0.100000 -0.000000
vn -0.000000 0.100000 -0.000000
vn 0.000000 0.000000 0.100000
vn 0.000000 0.000000 0.100000
vn 0.000000 0.000000 0.100000
vn 0.000000 0.000000 0.100000
vn -0.000000 0.100000 -0.000000
vn -0.000000 0.100000 -0.000000
vn -0.000000 0.100000 -0.000000
vn -0.000000 0.100000 -0.000000
vn -0.100000 0.000000 -0.000000
vn -0.100000 0.000000 -0.000000
vn -0.100000 0.000000 -0.000000
vn -0.100000 0.000000 -0.000000
vn -0.000000 -0.100000 0.000000
vn -0.000000 -0.100000 0.000000
vn -0.000000 -0.100000 0.000000
vn -0.000000 -0.100000 0.000000
vn 0.100000 0.000000 0.000000
vn 0.100000 0.000000 0.000000
vn 0.100000 0.000000 0.000000
vn 0.100000 0.000000 0.000000
vn 0.000000 0.000000 0.100000
vn 0.000000 0.000000 0.100000
vn 0.000000 0.000000 0.100000
vn 0.000000 0.000000 0.100000
vn -0.100000 0.000000 0.000000
vn -0.100000 0.000000 0.000000
vn -0.100000 0.000000 0.000000
vn -0.100000 0.000000 0.000000
vn 0.000000 -0.100000 0.000000
vn 0.000000 -0.100000 0.000000
vn 0.000000 -0.100000 0.000000
vn 0.000000 -0.100000 0.000000
vn 0.100000 0.000000 0.000000
vn 0.100000 0.000000 0.000000
vn 0.100000 0.000000 0.000000
vn 0.100000 0.000000 0.000000
vn 0.000000 0.100000 0.000000
vn 0.000000 0.100000 0.000000
vn 0.000000 0.100000 0.000000
vn 0.000000 0.100000 0.000000
vn 0.000000 0.000000 0.100000
vn 0.000000 0.000000 0.100000
vn 0.000000 0.000000 0.100000
vn 0.000000 0.000000 0.100000
vn 0.100000 -0.000000 0.000000
vn 0.100000 -0.000000 0.000000
vn 0.100000 -0.000000 0.000000
vn 0.100000 -0.000000 0.000000
vn 0.000000 0.100000 0.000000
vn 0.000000 0.100000 0.000000
vn 0.000000 0.100000 0.000000
vn 0.000000 0.100000 0.000000
vn -0.100000 0.000000 -0.000000
vn -0.100000 0.000000 -0.000000
vn -0.100000 0.000000 -0.000000
vn -0.100000 0.000000 -0.000000
vn 0.000000 -0.100000 0.000000
vn 0.000000 -0.100000 0.000000
vn 0.000000 -0.100000 0.000000
vn 0.000000 -0.100000 0.000000
vn 0.000000 0.000000 0.100000
vn 0.000000 0.000000 0.100000
vn 0.000000 0.000000 0.100000
vn 0.000000 0.000000 0.100000
vn 0.100000 0.000000 0.000000
vn 0.100000 0.000000 0.000000
vn 0.100000 0.000000 0.000000
vn 0.100000 0.000000 0.000000
vn 0.000000 -0.100000 0.000000
vn 0.000000 -0.100000 0.000000
vn 0.000000 -0.100000 0.000000
vn 0.000000 -0.100000 0.000000
vn -0.100000 -0.000000 0.000000
vn -0.100000 -0.000000 0.000000
vn -0.100000 -0.000000 0.000000
vn -0.100000 -0.000000 0.000000
vn 0.000000 0.100000 0.000000
vn 0.000000 0.100000 0.000000
vn 0.000000 0.100000 0.000000
vn 0.000000 0.100000 0.000000
vn 0.000000 0.000000 0.100000
vn 0.000000 0.000000 0.100000
vn 0.000000 0.000000 0.100000
vn 0.000000 0.000000 0.100000
vn 0.000000 0.000000 0.100000
vn 0.000000 0.000000 0.100000
vn 0.000000 0.000000 0.100000
vn 0.000000 0.000000 0.100000
vn 0.000000 0.000000 0.100000
vn 0.000000 0.000000 0.100000
vn 0.000000 0.000000 0.100000
vn 0.000000 0.000000 0.100000
vn 0.000000 0.000000 0.100000
vn 0.000000 0.000000 0.100000
vn 0.000000 0.000000 0.100000
vn 0.000000 0.000000 0.100000
vn 0.000000 0.000000 0.100000
vn 0.000000 0.000000 0.100000
vn 0.000000 0.000000 0.100000
vn 0.000000 0.000000 0.100000
vn -0.000000 0.000000 -0.100000
vn -0.000000 0.000000 -0.100000
vn -0.000000 0.000000 -0.100000
vn -0.000000 0.000000 -0.100000
usemtl Steel_-_Satin
f 1/1/1 2/2/2 4/3/3
f 4/3/3 2/2/2 3/4/4
f 2/5/5 5/6/6 3/7/7
f 3/7/7 5/6/6 6/8/8
f 5/9/9 7/10/10 6/11/11
f 6/11/11 7/10/10 8/12/12
f 7/13/13 1/14/14 8/15/15
f 8/15/15 1/14/14 4/16/16
f 8/17/17 4/18/18 6/19/19
f 6/19/19 4/18/18 3/20/20
f 9/21/21 10/22/22 12/23/23
f 12/23/23 10/22/22 11/24/24
f 10/25/25 13/26/26 11/27/27
f 11/27/27 13/26/26 14/28/28
f 13/29/29 15/30/30 14/31/31
f 14/31/31 15/30/30 16/32/32
f 15/33/33 9/34/34 16/35/35
f 16/35/35 9/34/34 12/36/36
f 12/37/37 11/38/38 16/39/39
f 16/39/39 11/38/38 14/40/40
f 17/41/41 18/42/42 20/43/43
f 20/43/43 18/42/42 19/44/44
f 18/45/45 21/46/46 19/47/47
f 19/47/47 21/46/46 22/48/48
f 21/49/49 23/50/50 22/51/51
f 22/51/51 23/50/50 24/52/52
f 23/53/53 17/54/54 24/55/55
f 24/55/55 17/54/54 20/56/56
f 24/57/57 20/58/58 22/59/59
f 22/59/59 20/58/58 19/60/60
f 25/61/61 26/62/62 28/63/63
f 28/63/63 26/62/62 27/64/64
f 26/65/65 29/66/66 27/67/67
f 27/67/67 29/66/66 30/68/68
f 29/69/69 31/70/70 30/71/71
f 30/71/71 31/70/70 32/72/72
f 31/73/73 25/74/74 32/75/75
f 32/75/75 25/74/74 28/76/76
f 32/77/77 28/78/78 30/79/79
f 30/79/79 28/78/78 27/80/80
f 33/81/81 34/82/82 36/83/83
f 36/83/83 34/82/82 35/84/84
f 37/85/85 33/86/86 38/87/87
f 38/87/87 33/86/86 36/88/88
f 39/89/89 37/90/90 40/91/91
f 40/91/91 37/90/90 38/92/92
f 34/93/93 39/94/94 35/95/95
f 35/95/95 39/94/94 40/96/96
f 5/97/97 2/98/98 35/99/99
f 35/99/99 2/98/98 1/100/100
f 35/99/99 1/100/100 36/101/101
f 36/101/101 1/100/100 31/102/102
f 36/101/101 31/102/102 29/103/103
f 1/100/100 7/104/104 31/102/102
f 31/102/102 7/104/104 25/105/105
f 25/105/105 7/104/104 17/106/106
f 25/105/105 17/106/106 13/107/107
f 13/107/107 17/106/106 23/108/108
f 13/107/107 23/108/108 15/109/109
f 15/109/109 23/108/108 38/110/110
f 15/109/109 38/110/110 9/111/111
f 9/111/111 38/110/110 10/112/112
f 10/112/112 38/110/110 36/101/101
f 10/112/112 36/101/101 26/113/113
f 26/113/113 36/101/101 29/103/103
f 17/106/106 7/104/104 18/114/114
f 18/114/114 7/104/104 5/97/97
f 18/114/114 5/97/97 40/115/115
f 40/115/115 5/97/97 35/99/99
f 25/105/105 13/107/107 26/113/113
f 26/113/113 13/107/107 10/112/112
f 38/110/110 23/108/108 40/115/115
f 40/115/115 23/108/108 21/116/116
f 40/115/115 21/116/116 18/114/114
f 39/117/117 34/118/118 37/119/119
f 37/119/119 34/118/118 33/120/120
# 40 vertices
# 120 texture params
# 120 normals
# 76 facets

# 1 groups
